<?xml version="1.0" encoding="UTF-8" standalone="no"?>
<!-- Created with Inkscape (http://www.inkscape.org/) -->

<svg
   version="1.1"
   id="svg1"
   width="720"
   height="1610"
   viewBox="0 0 720.00002 1610"
   sodipodi:docname="phone.svg"
   inkscape:version="1.4.2 (ebf0e940d0, 2025-05-08)"
   xmlns:inkscape="http://www.inkscape.org/namespaces/inkscape"
   xmlns:sodipodi="http://sodipodi.sourceforge.net/DTD/sodipodi-0.dtd"
   xmlns="http://www.w3.org/2000/svg"
   xmlns:svg="http://www.w3.org/2000/svg">
  <defs
     id="defs1" />
  <sodipodi:namedview
     id="namedview1"
     pagecolor="#ffffff"
     bordercolor="#666666"
     borderopacity="1.0"
     inkscape:showpageshadow="2"
     inkscape:pageopacity="0.0"
     inkscape:pagecheckerboard="0"
     inkscape:deskcolor="#d1d1d1"
     showgrid="false"
     inkscape:zoom="0.18957934"
     inkscape:cx="97.584473"
     inkscape:cy="495.83462"
     inkscape:window-width="1910"
     inkscape:window-height="1020"
     inkscape:window-x="1925"
     inkscape:window-y="55"
     inkscape:window-maximized="1"
     inkscape:current-layer="group-R5">
    <inkscape:page
       x="0"
       y="0"
       width="720"
       height="1610"
       id="page2"
       margin="0"
       bleed="0" />
    <inkscape:grid
       id="grid1"
       units="px"
       originx="7.4597688"
       originy="-992.14606"
       spacingx="1"
       spacingy="1"
       empcolor="#0099e5"
       empopacity="0.30196078"
       color="#0099e5"
       opacity="0.14901961"
       empspacing="5"
       enabled="true"
       visible="false" />
  </sodipodi:namedview>
  <g
     id="g1"
     inkscape:groupmode="layer"
     inkscape:label="1"
     transform="translate(-1838.3929,-1361.0571)">
    <g
       id="group-R5"
       transform="matrix(0.36157159,0,0,0.36370142,1257.5691,1182.1596)">
      <path
         d="m 2467.7129,535.7129 c -4.4597,0 -8.1046,4.02424 -8.1046,8.94815 0,4.9105 3.6449,8.93637 8.1046,8.93637 h 273.0172 c 4.4476,0 8.0922,-4.02587 8.0922,-8.93637 0,-4.92391 -3.6446,-8.94815 -8.0922,-8.94815 z"
         style="fill:#2b2b2f;stroke-width:0.957648"
         id="path168" />
      <path
         d="m 1610.5697,2299.1876 c -1.8404,-2.0784 -3.1852,-4.6998 -3.804,-7.6195 0.6174,2.9211 1.9589,5.5429 3.804,7.6195 z"
         id="path167"
         style="stroke-width:0.957648" />
      <path
         d="m 1611.7375,2300.3669 c -0.4038,-0.3664 -0.791,-0.7563 -1.157,-1.1675 0.3691,0.4161 0.7588,0.8106 1.1658,1.1812 0,0 -0.01,-0.01 -0.01,-0.014 z"
         id="path166"
         style="stroke-width:0.957648" />
      <path
         d="m 3490.6547,586.81154 c 0.6713,0.73689 1.2649,1.55552 1.9296,2.29943 -0.5079,-0.59306 -0.9477,-1.2546 -1.4596,-1.84348 -0.1503,-0.1595 -0.3192,-0.29679 -0.47,-0.45595 z"
         style="fill:#c1bfbd;stroke-width:0.957648"
         id="path165" />
      <path
         d="m 3490.6547,586.81154 c 0.1508,0.15916 0.3197,0.29645 0.47,0.45595 -0.2415,-0.27779 -0.4857,-0.55252 -0.7281,-0.82937 -0.1174,-0.12865 -0.249,-0.24104 -0.3666,-0.36948 0.2177,0.23758 0.4077,0.50458 0.6247,0.7429 z"
         style="fill:#ececec;stroke-width:0.957648"
         id="path164" />
      <path
         d="m 2059.0816,519.37116 v -23.01011 h -26.7348 v 23.01011 z"
         style="fill:#c1bfbd;fill-opacity:1;stroke-width:0.957648"
         id="path163" />
      <path
         d="m 2059.0816,519.37116 h -26.7348 v 77.94311 h 26.7348 z"
         style="fill:#1c1c1f;stroke-width:0.957648"
         id="path162" />
      <path
         d="M 3145.011,519.37116 V 496.36105 H 2059.0816 v 23.01011 z"
         style="fill:#c1bfbd;stroke-width:0.957648"
         id="path161" />
      <path
         d="M 3145.011,519.37116 H 2059.0816 v 77.94311 H 3145.011 Z m -677.2981,16.34174 h 273.0172 c 4.4476,0 8.0922,4.02424 8.0922,8.94815 0,4.9105 -3.6446,8.93637 -8.0922,8.93637 h -273.0172 c -4.4597,0 -8.1046,-4.02587 -8.1046,-8.93637 0,-4.92391 3.6449,-8.94815 8.1046,-8.94815 z"
         style="fill:#1c1c1f;stroke-width:0.957648"
         id="path160"
         sodipodi:nodetypes="cccccsssssss" />
      <path
         d="m 3171.7458,519.37116 v -23.01011 h -26.7348 v 23.01011 z"
         style="fill:#c1bfbd;fill-opacity:1;stroke-width:0.957648"
         id="path159" />
      <path
         d="m 3171.7458,519.37116 h -26.7348 v 77.94311 h 26.7348 z"
         style="fill:#1c1c1f;stroke-width:0.957648"
         id="path158" />
      <path
         d="m 1657.8375,4483.4852 h 70.2378 v -29.5153 h -70.2378 z"
         style="fill:#1c1c1f;stroke-width:0.957648"
         id="path147" />
      <path
         d="m 2032.3468,4891.0971 v -62.9162 h -74.3336 c -126.4648,0 -229.9379,-114.2445 -229.9379,-253.8717 v -90.824 h -70.2378 v 82.5008 c 0,178.8172 132.5168,325.1111 294.4653,325.1111 z"
         style="fill:#1c1c1f;stroke-width:0.957648"
         id="path146" />
      <path
         d="m 2059.0816,4891.0971 v -62.9162 h -26.7348 v 62.9162 z"
         style="fill:#1c1c1f;stroke-width:0.957648"
         id="path145" />
      <path
         d="m 3145.011,4891.0971 v -62.9162 H 2059.0816 v 62.9162 z"
         style="fill:#1c1c1f;stroke-width:0.957648"
         id="path144" />
      <path
         d="m 3171.7458,4891.0971 v -62.9162 h -26.7348 v 62.9162 z"
         style="fill:#1c1c1f;stroke-width:0.957648"
         id="path143" />
      <path
         d="m 3546.2426,4483.4852 h -43.0295 v 90.824 c 0,139.6272 -103.4749,253.8717 -229.9397,253.8717 h -101.5276 v 62.9162 h 80.0316 c 161.9605,0 294.4652,-146.2939 294.4652,-325.1111 z"
         style="fill:#1c1c1f;stroke-width:0.957648"
         id="path142" />
      <path
         d="m 3546.2426,4453.9699 h -43.0295 v 29.5153 h 43.0295 z"
         style="fill:#1c1c1f;stroke-width:0.957648"
         id="path141" />
      <path
         d="M 3503.2131,973.09558 V 4453.9699 h 43.0295 V 973.09558 Z"
         style="fill:#1c1c1f;stroke-width:0.957648"
         id="path140" />
      <path
         d="M 1657.8375,973.09558 V 4453.9699 h 70.2378 V 973.09558 Z"
         style="fill:#1c1c1f;stroke-width:0.957648"
         id="path134" />
      <path
         d="m 1640.5442,1302.157 c 0.8292,0.7254 1.5854,1.5473 2.2554,2.4508 0.01,0.01 0.02,0.018 0.03,0.027 -0.6781,-0.9147 -1.4453,-1.7447 -2.2856,-2.4783 z"
         style="fill:#ececec;stroke-width:0.957648"
         id="path133" />
      <path
         d="m 1630.3017,1301.025 h 3.3412 c 3.4615,0 6.6459,1.345 9.1567,3.5828 -0.67,-0.9035 -1.4262,-1.7254 -2.2554,-2.4508 -0.5397,-0.4711 -1.1192,-0.8865 -1.7159,-1.2715 -0.7791,-0.5031 -1.5937,-0.945 -2.4548,-1.2834 -0.023,-0.01 -0.046,-0.015 -0.069,-0.024 -0.9934,-0.3842 -2.0335,-0.6563 -3.1097,-0.794 -0.5505,-0.07 -1.1096,-0.1061 -1.6769,-0.1061 h -1.2158 z"
         style="fill:#ececec;stroke-width:0.957648"
         id="path132" />
      <path
         d="m 1630.3017,1465.9969 h 1.2158 c 8.0203,0 14.5823,-7.245 14.5823,-16.1 v -135.1185 c 0,-3.8482 -1.2405,-7.393 -3.3002,-10.1706 -2.5108,-2.2378 -5.6952,-3.5828 -9.1567,-3.5828 h -3.3412 z"
         style="fill:#c1bfbd;stroke-width:0.957648"
         id="path131" />
      <path
         d="m 1630.3017,1591.1886 h 3.4267 c 3.4393,0 6.6004,1.3324 9.0997,3.5592 -0.015,-0.019 -0.026,-0.041 -0.041,-0.061 -0.2735,-0.3694 -0.5707,-0.7142 -0.8722,-1.0553 -0.1092,-0.1233 -0.2095,-0.256 -0.3222,-0.3753 -1.2439,-1.3201 -2.6982,-2.4026 -4.3007,-3.1721 -1.4181,-0.6811 -2.9517,-1.1192 -4.557,-1.2677 0,0 0,0 0,0 -0.401,-0.037 -0.8064,-0.057 -1.2158,-0.057 h -1.2157 z"
         style="fill:#ececec;stroke-width:0.957648"
         id="path130" />
      <path
         d="m 1630.3017,1906.8956 h 1.2158 c 8.0203,0 14.5823,-7.245 14.5823,-16.1 v -285.9362 c 0,-3.8249 -1.2343,-7.3416 -3.2717,-10.1116 -2.4993,-2.2268 -5.6604,-3.5592 -9.0997,-3.5592 h -3.4267 z"
         style="fill:#c1bfbd;stroke-width:0.957648"
         id="path129" />
      <path
         d="m 1640.5353,1989.3629 c 0.8256,0.721 1.5802,1.5394 2.2482,2.437 0,0 0.01,0.01 0.011,0.01 -0.6714,-0.9023 -1.4299,-1.723 -2.2589,-2.4469 z"
         id="path128"
         style="stroke-width:0.957648" />
      <path
         d="m 1630.3017,1988.1464 h 3.2683 c 3.4825,0 6.6997,1.3786 9.2135,3.6535 -0.668,-0.8976 -1.4226,-1.716 -2.2482,-2.437 0,0 -0.01,0 -0.01,-0.01 -0.035,-0.03 -0.072,-0.055 -0.1068,-0.084 -0.7981,-0.6837 -1.6577,-1.2832 -2.574,-1.7748 -0.4804,-0.2576 -0.9769,-0.4869 -1.4846,-0.6858 -1.0111,-0.3963 -2.0739,-0.6736 -3.1721,-0.8137 -0.5494,-0.07 -1.1072,-0.1061 -1.6732,-0.1061 h -1.2158 z"
         style="fill:#ececec;stroke-width:0.957648"
         id="path127" />
      <path
         d="m 1630.3017,2304.0283 h 1.2158 c 8.0203,0 14.5823,-7.245 14.5823,-16.1 v -285.9362 c 0,-3.859 -1.2462,-7.4111 -3.3163,-10.1922 -2.5138,-2.2749 -5.731,-3.6535 -9.2135,-3.6535 h -3.2683 z"
         style="fill:#c1bfbd;stroke-width:0.957648"
         id="path126" />
      <path
         d="m 1630.3017,4453.9699 h 27.5358 V 973.09558 h -27.5358 v 325.58282 h 1.2158 c 4.557,0 8.6268,2.3344 11.3123,5.9569 -0.01,-0.01 -0.02,-0.018 -0.03,-0.027 2.0598,2.7776 3.3003,6.3224 3.3003,10.1706 v 135.1185 c 0,8.855 -6.562,16.1 -14.5823,16.1 h -1.2158 v 122.7625 h 1.2158 c 0.4093,0 0.8148,0.02 1.2158,0.057 1.6058,0.1482 3.1406,0.5868 4.5587,1.2677 1.0639,0.5109 2.0647,1.1583 2.9799,1.9221 0.4638,0.3866 0.9021,0.8064 1.3208,1.25 0.1127,0.1196 0.2129,0.2517 0.3221,0.3753 0.302,0.3407 0.5984,0.6865 0.8722,1.0554 0.021,0.029 0.046,0.053 0.068,0.082 -0.01,-0.01 -0.018,-0.014 -0.026,-0.022 2.0374,2.77 3.2717,6.2867 3.2717,10.1116 v 285.9362 c 0,8.855 -6.562,16.1 -14.5823,16.1 h -1.2158 v 78.9965 h 1.2158 c 0.566,0 1.1238,0.036 1.6732,0.1062 1.0982,0.14 2.161,0.4173 3.1721,0.8136 1.5177,0.5949 2.9226,1.4613 4.1654,2.5451 0.831,0.7249 1.5933,1.5486 2.266,2.4528 0,0 -0.01,-0.01 -0.011,-0.01 2.0701,2.7811 3.3163,6.3332 3.3163,10.1922 v 285.9362 c 0,8.855 -6.562,16.1 -14.5823,16.1 h -1.2158 z"
         style="fill:#c1bfbd;stroke-width:0.957648"
         id="path125" />
      <path
         d="m 1630.3017,4483.4852 h 27.5358 v -29.5153 h -27.5358 z"
         style="fill:#c1bfbd;fill-opacity:1;stroke-width:0.957648"
         id="path124" />
      <path
         d="m 1712.6314,4822.8313 c -0.1462,-0.1681 -0.2706,-0.3584 -0.4165,-0.5268 -0.2342,-0.2601 -0.4981,-0.4858 -0.7316,-0.7467 0.1119,0.1249 0.2101,0.2642 0.3222,0.3891 0.2756,0.2944 0.5492,0.5911 0.8259,0.8844 z"
         style="fill:#ececec;stroke-width:0.957648"
         id="path123" />
      <path
         d="m 1714.3154,4824.4586 c -0.6803,-0.7413 -1.4267,-1.4056 -2.1005,-2.1541 0.1459,0.1684 0.2703,0.3587 0.4165,0.5268 0.5382,0.5703 1.142,1.0614 1.684,1.6273 z"
         style="fill:#c1bfbd;stroke-width:0.957648"
         id="path122" />
      <path
         d="m 2032.3468,4913.6375 v -22.5404 h -80.044 c -161.9485,0 -294.4653,-146.2939 -294.4653,-325.1111 v -82.5008 h -27.5358 v 114.459 c 0,86.8061 31.2504,165.9105 81.9132,224.3603 0.6738,0.7485 1.4202,1.4128 2.1005,2.1541 52.8323,55.1617 123.9173,89.1789 201.9196,89.1789 z"
         style="fill:#c1bfbd;stroke-width:0.957648"
         id="path121" />
      <path
         d="m 2059.0816,4913.6375 v -22.5404 h -26.7348 v 22.5404 z"
         style="fill:#c1bfbd;fill-opacity:1;stroke-width:0.957648"
         id="path120" />
      <path
         d="m 3145.011,4913.6375 v -22.5404 H 2059.0816 v 22.5404 z"
         style="fill:#c1bfbd;stroke-width:0.957648"
         id="path119" />
      <path
         d="m 3171.7458,4913.6375 v -22.5404 h -26.7348 v 22.5404 z"
         style="fill:#c1bfbd;fill-opacity:1;stroke-width:0.957648"
         id="path118" />
      <path
         d="m 3573.3654,4483.4852 h -27.1228 v 82.5008 c 0,178.8172 -132.5047,325.1111 -294.4652,325.1111 h -80.0316 v 22.5404 h 107.1544 c 161.9484,0 294.4652,-146.2958 294.4652,-325.1132 z"
         style="fill:#c1bfbd;stroke-width:0.957648"
         id="path117" />
      <path
         d="m 3573.3654,4453.9699 h -27.1228 v 29.5153 h 27.1228 z"
         style="fill:#c1bfbd;fill-opacity:1;stroke-width:0.957648"
         id="path116" />
      <path
         d="m 3573.3654,2187.3308 h -5.4558 c -2.8193,0 -5.4558,-0.9118 -7.6917,-2.4547 0.6384,1.1272 1.3999,2.1605 2.2624,3.0797 0.026,0.028 0.055,0.054 0.082,0.082 0.3796,0.3984 0.7815,0.7702 1.198,1.1222 0.085,0.072 0.1702,0.141 0.2563,0.2103 0.3922,0.3168 0.8007,0.6113 1.2211,0.8844 0.079,0.051 0.1547,0.1094 0.235,0.1592 0.4942,0.3072 1.0051,0.5846 1.5327,0.8274 0.077,0.035 0.1576,0.06 0.2349,0.095 0.442,0.1937 0.8946,0.3633 1.3564,0.5089 0.1658,0.052 0.3339,0.096 0.5019,0.1416 0.3899,0.1063 0.7861,0.1928 1.1874,0.2633 0.1831,0.032 0.3648,0.07 0.55,0.095 0.5677,0.076 1.1428,0.1258 1.7285,0.1258 h 0.801 z"
         style="fill:#9c9c9b;stroke-width:0.957648"
         id="path115" />
      <path
         d="m 3573.3654,1686.8629 h -0.801 c -8.0203,0 -14.5823,7.245 -14.5823,16.1 v 473.4072 c 0,3.1212 0.8288,6.0317 2.2358,8.506 2.2359,1.5429 4.8724,2.4547 7.6917,2.4547 h 5.4558 z"
         style="fill:#c1bfbd;stroke-width:0.957648"
         id="path114" />
      <path
         d="m 3573.3654,973.09558 h -27.1228 V 4453.9699 h 27.1228 V 2192.4701 h -0.801 c -0.5854,0 -1.1607,-0.05 -1.7285,-0.1258 -0.1855,-0.024 -0.3666,-0.062 -0.55,-0.095 -0.4017,-0.07 -0.797,-0.1571 -1.1873,-0.2633 -0.1682,-0.046 -0.3362,-0.09 -0.5019,-0.1416 -0.462,-0.1453 -0.9142,-0.3157 -1.3565,-0.509 -0.077,-0.034 -0.1582,-0.059 -0.2349,-0.094 -0.5277,-0.2423 -1.038,-0.5209 -1.5327,-0.8274 -0.08,-0.05 -0.1556,-0.1076 -0.235,-0.1592 -0.4215,-0.2729 -0.8276,-0.5677 -1.2211,-0.8844 -0.087,-0.069 -0.1717,-0.1387 -0.2563,-0.2103 -0.417,-0.3512 -0.8177,-0.7246 -1.198,-1.1222 -0.027,-0.028 -0.056,-0.054 -0.082,-0.082 -2.7645,-2.9345 -4.4982,-7.0433 -4.4982,-11.5857 V 1702.963 c 0,-8.855 6.5621,-16.1 14.5823,-16.1 h 0.801 z"
         style="fill:#c1bfbd;stroke-width:0.957648"
         id="path113" />
      <path
         d="m 3546.2426,943.57826 v 29.51732 h 27.1228 v -29.51732 z"
         style="fill:#c1bfbd;fill-opacity:1;stroke-width:0.957648"
         id="path112" />
      <path
         d="m 3546.2426,943.57826 h 27.1228 V 812.05628 c 0,-86.12501 -30.8258,-164.61338 -80.7811,-222.94531 -0.6647,-0.74391 -1.2583,-1.56254 -1.9296,-2.29943 -52.9526,-55.93098 -124.6055,-90.45049 -203.2226,-90.45049 h -115.6863 v 23.01011 h 80.0316 c 161.9605,0 294.4652,146.29576 294.4652,325.11309 z"
         style="fill:#c1bfbd;stroke-width:0.957648"
         id="path111" />
      <path
         d="m 3503.2131,943.57826 v 29.51732 h 43.0295 v -29.51732 z"
         style="fill:#1c1c1f;stroke-width:0.957648"
         id="path110" />
      <path
         d="m 3503.2131,943.57826 h 43.0295 v -99.09401 c 0,-178.81733 -132.5047,-325.11309 -294.4652,-325.11309 h -80.0316 v 77.94311 h 101.5276 c 126.4648,0 229.9397,114.2426 229.9397,253.86981 z"
         style="fill:#1c1c1f;stroke-width:0.957648"
         id="path109" />
      <path
         d="m 1657.8375,943.57826 v 29.51732 h 70.2378 v -29.51732 z"
         style="fill:#1c1c1f;stroke-width:0.957648"
         id="path98" />
      <path
         d="m 1657.8375,943.57826 h 70.2378 v -92.39418 c 0,-139.62721 103.4731,-253.86981 229.9379,-253.86981 h 74.3336 v -77.94311 h -80.044 c -161.9485,0 -294.4653,146.29576 -294.4653,325.11309 z"
         style="fill:#1c1c1f;stroke-width:0.957648"
         id="path97" />
      <path
         d="m 1630.3017,943.57826 v 29.51732 h 27.5358 v -29.51732 z"
         style="fill:#ececec;stroke-width:0.957648"
         id="path96" />
      <path
         d="m 1630.3017,943.57826 h 27.5358 v -99.09401 c 0,-178.81733 132.5168,-325.11309 294.4653,-325.11309 h 80.044 V 496.36105 H 1924.767 c -161.9606,0 -294.4653,146.29576 -294.4653,325.11309 z"
         style="fill:#c1bfbd;stroke-width:0.957648"
         id="path95" />
      <path
         d="m 1626.2432,973.09558 h 4.0585 v -29.51732 h -4.0585 z"
         style="fill:#ececec;stroke-width:0.957648"
         id="path94" />
      <path
         d="m 1626.2432,1298.6784 h 4.0585 V 973.09558 h -4.0585 z"
         style="fill:#ececec;stroke-width:0.957648"
         id="path93" />
      <path
         d="m 1626.2432,1301.025 h 4.0585 v -2.3466 h -4.0585 z"
         style="fill:#ececec;stroke-width:0.957648"
         id="path92" />
      <path
         d="m 1626.2432,1301.025 v -2.3466 h -5.2743 c -8.0203,0 -14.5823,7.245 -14.5823,16.1 v 135.1185 c 0,0.5947 0.035,1.1805 0.093,1.7591 0.017,0.1725 0.049,0.34 0.071,0.5109 0.054,0.4101 0.1129,0.8187 0.194,1.2185 0.038,0.1872 0.087,0.3695 0.1299,0.5542 0.087,0.3646 0.1777,0.7268 0.2866,1.081 0.06,0.1968 0.127,0.3903 0.1941,0.5837 0.1204,0.3468 0.2503,0.6889 0.3916,1.0239 0.074,0.1744 0.149,0.3479 0.2278,0.5189 0.1636,0.3542 0.3407,0.699 0.5269,1.0376 0.072,0.1319 0.1415,0.2657 0.2172,0.3951 0.2285,0.39 0.4744,0.766 0.7316,1.132 0.051,0.072 0.096,0.1489 0.1477,0.2202 0.6527,0.8968 1.3881,1.7181 2.1966,2.4428 -2.0415,-2.7638 -3.2806,-6.2922 -3.2806,-10.1293 V 1317.125 c 0,-8.855 6.562,-16.1 14.5823,-16.1 z"
         style="fill:#ececec;stroke-width:0.957648"
         id="path91" />
      <path
         d="m 1626.2432,1465.9969 h 4.0585 V 1301.025 h -4.0585 z"
         style="fill:#c1bfbd;stroke-width:0.957648"
         id="path90" />
      <path
         d="M 1626.2432,1465.9969 V 1301.025 h -3.1471 c -8.0203,0 -14.5823,7.245 -14.5823,16.1 v 135.1205 c 0,3.8371 1.2391,7.3655 3.2806,10.1293 -0.8085,-0.7247 -1.544,-1.546 -2.1966,-2.4428 2.6782,3.6875 6.7826,6.0649 11.3711,6.0649 z"
         style="fill:#c1bfbd;stroke-width:0.957648"
         id="path89" />
      <path
         d="m 1626.2432,1588.7594 h 4.0585 v -122.7625 h -4.0585 z"
         style="fill:#ececec;stroke-width:0.957648"
         id="path88" />
      <path
         d="m 1626.2432,1591.1886 h 4.0585 v -2.4292 h -4.0585 z"
         style="fill:#ececec;stroke-width:0.957648"
         id="path87" />
      <path
         d="m 1626.2432,1591.1886 v -2.4292 h -5.2743 c -8.0203,0 -14.5823,7.245 -14.5823,16.1 v 285.9362 c 0,0.5927 0.035,1.1765 0.093,1.753 0.019,0.1906 0.054,0.3756 0.078,0.5641 0.053,0.3966 0.1083,0.7923 0.1869,1.1793 0.038,0.1878 0.088,0.3707 0.1317,0.5561 0.088,0.3723 0.1836,0.7411 0.2955,1.1026 0.056,0.1834 0.1191,0.3639 0.1815,0.5443 0.1265,0.3646 0.2637,0.7236 0.4131,1.0751 0.068,0.1616 0.1385,0.3228 0.2118,0.4815 0.167,0.3613 0.3471,0.7142 0.5375,1.0593 0.073,0.1328 0.1442,0.2667 0.2208,0.397 0.225,0.3828 0.4665,0.7508 0.7191,1.1104 0.058,0.083 0.1098,0.1704 0.1691,0.2516 0.6487,0.8876 1.3786,1.6993 2.1788,2.4173 0.01,0.01 0.014,0.01 0.02,0.016 -2.0129,-2.7622 -3.2361,-6.2723 -3.2361,-10.0782 v -285.936 c 0,-8.855 6.5621,-16.1 14.5823,-16.1 z"
         style="fill:#ececec;stroke-width:0.957648"
         id="path86" />
      <path
         d="m 1626.2432,1906.8956 h 4.0585 v -315.707 h -4.0585 z"
         style="fill:#c1bfbd;stroke-width:0.957648"
         id="path85" />
      <path
         d="m 1626.2432,1906.8956 v -315.707 h -3.0741 c -8.0203,0 -14.5823,7.245 -14.5823,16.1 v 285.9361 c 0,3.8059 1.2232,7.316 3.2361,10.0782 2.5065,2.241 5.6889,3.5927 9.146,3.5927 z"
         style="fill:#c1bfbd;stroke-width:0.957648"
         id="path84" />
      <path
         d="m 1626.2432,1985.8921 h 4.0585 v -78.9965 h -4.0585 z"
         style="fill:#ececec;stroke-width:0.957648"
         id="path83" />
      <path
         d="m 1626.2432,1988.1464 h 4.0585 v -2.2543 h -4.0585 z"
         style="fill:#ececec;stroke-width:0.957648"
         id="path82" />
      <path
         d="m 1626.2432,1988.1464 v -2.2543 h -5.2743 c -8.0203,0 -14.5823,7.245 -14.5823,16.1 v 285.9362 c 0,0.6249 0.032,1.2446 0.096,1.8513 0.383,3.6435 1.8827,6.9235 4.0977,9.4198 0.366,0.4112 0.7532,0.8011 1.157,1.1675 -2.0605,-2.7889 -3.2967,-6.3255 -3.2967,-10.1706 v -285.9499 c 0,-8.855 6.562,-16.1 14.5823,-16.1 z"
         style="fill:#ececec;stroke-width:0.957648"
         id="path81" />
      <path
         d="m 1626.2432,2304.0283 h 4.0585 v -315.8819 h -4.0585 z"
         style="fill:#c1bfbd;stroke-width:0.957648"
         id="path80" />
      <path
         d="m 1626.2432,2304.0283 v -315.8819 h -3.2201 c -8.0203,0 -14.5823,7.245 -14.5823,16.1 v 285.9499 c 0,3.8451 1.2362,7.3817 3.2967,10.1706 2.5188,2.2855 5.7363,3.6614 9.2314,3.6614 z"
         style="fill:#c1bfbd;stroke-width:0.957648"
         id="path79" />
      <path
         d="m 1626.2432,4453.9699 h 4.0585 V 2304.0283 h -4.0585 z"
         style="fill:#ececec;stroke-width:0.957648"
         id="path78" />
      <path
         d="m 1627.7598,4626.3668 c -0.9962,-10.8186 -1.5163,-21.7856 -1.5166,-32.8819 3e-4,11.0965 0.5199,22.0633 1.5166,32.8819 z"
         id="path76"
         style="stroke-width:0.957648" />
      <path
         d="m 1685.352,4787.6597 c -3.1522,-4.637 -6.4105,-9.1827 -9.34,-14.005 2.9298,4.8245 6.1871,9.3659 9.34,14.005 z"
         id="path75"
         style="stroke-width:0.957648" />
      <path
         d="m 1703.3306,4811.6584 c 2.7202,3.2989 5.314,6.7256 8.1527,9.8994 0.2335,0.2609 0.4974,0.4866 0.7316,0.7467 -50.6628,-58.4498 -81.9132,-137.5542 -81.9132,-224.3603 v -114.459 h -4.0585 v 109.9898 c 0,0 0,0.01 0,0.01 3e-4,11.0963 0.5204,22.0633 1.5166,32.8819 0.3771,4.0926 1.1479,8.0512 1.6626,12.0986 0.8451,6.6476 1.5593,13.3422 2.7662,19.8578 0.8899,4.802 2.1925,9.4302 3.2735,14.1543 1.2773,5.5843 2.3793,11.2437 3.9162,16.7112 1.4174,5.0398 3.2332,9.8772 4.8649,14.8107 1.6337,4.9416 3.0901,9.9747 4.9325,14.8029 1.9486,5.1038 4.2762,9.9791 6.451,14.9483 1.9346,4.4219 3.7,8.9488 5.8084,13.2581 2.4461,4.9983 5.2469,9.7423 7.9194,14.5809 2.2208,4.022 4.2854,8.1591 6.6575,12.0651 2.9295,4.8223 6.1878,9.368 9.34,14.005 2.4692,3.6333 4.7948,7.3893 7.3961,10.9036 3.3563,4.5331 7.0146,8.7687 10.5825,13.0951 z"
         style="fill:#ececec;stroke-width:0.957648"
         id="path74" />
      <path
         d="m 1703.3306,4811.6584 c -3.5679,-4.3264 -7.2262,-8.562 -10.5825,-13.0951 3.357,4.5351 7.0137,8.7668 10.5825,13.0951 z"
         id="path73"
         style="stroke-width:0.957648" />
      <path
         d="m 1710.5844,4820.634 c 0.2864,0.3229 0.6112,0.6021 0.8989,0.9238 -2.8387,-3.1738 -5.4325,-6.6005 -8.1527,-9.8994 2.4456,2.9654 4.7123,6.1112 7.2538,8.9756 z"
         style="fill:#ececec;stroke-width:0.957648"
         id="path72" />
      <path
         d="m 1710.6164,4820.6753 c 0.3945,0.426 0.7925,0.848 1.1891,1.2716 -0.1121,-0.1249 -0.2103,-0.2642 -0.3222,-0.3891 -0.2877,-0.3217 -0.6125,-0.6009 -0.8989,-0.9238 0.012,0.013 0.021,0.028 0.032,0.041 z"
         style="fill:#ececec;stroke-width:0.957648"
         id="path71" />
      <path
         d="m 1712.1811,4822.4048 c -0.1316,-0.1461 -0.2443,-0.3116 -0.3756,-0.4579 -0.3966,-0.4236 -0.7946,-0.8456 -1.1891,-1.2716 0.5165,0.5819 1.0443,1.1518 1.5647,1.7295 z"
         style="fill:#ececec;stroke-width:0.957648"
         id="path70" />
      <path
         d="m 1713.7102,4824.0576 c -0.3595,-0.4086 -0.7212,-0.8156 -1.0788,-1.2263 -0.2767,-0.2933 -0.5503,-0.59 -0.8259,-0.8844 0.1313,0.1463 0.244,0.3118 0.3756,0.4579 0.3926,0.4357 0.7872,0.8696 1.1819,1.303 0.1111,0.122 0.2359,0.228 0.3472,0.3498 z"
         style="fill:#ececec;stroke-width:0.957648"
         id="path69" />
      <path
         d="m 1713.7102,4824.0576 c -0.1113,-0.1218 -0.2361,-0.2278 -0.3472,-0.3498 0.4788,0.5255 0.9493,1.0602 1.4313,1.582 -0.3632,-0.4085 -0.723,-0.8216 -1.0841,-1.2322 z"
         style="fill:#ececec;stroke-width:0.957648"
         id="path68" />
      <path
         d="m 1724.4013,4834.7903 c -3.4108,-3.3882 -6.8209,-6.7744 -10.0859,-10.3317 -0.542,-0.5659 -1.1458,-1.057 -1.684,-1.6273 0.3576,0.4107 0.7193,0.8177 1.0788,1.2263 3.4211,3.7442 7.1089,7.175 10.6911,10.7327 z"
         style="fill:#9c9c9b;stroke-width:0.957648"
         id="path67" />
      <path
         d="m 1746.5149,4854.7207 c -4.7361,-3.8672 -9.526,-7.6599 -14.0411,-11.8254 4.5167,4.1662 9.3031,7.9578 14.0411,11.8254 z"
         id="path66"
         style="stroke-width:0.957648" />
      <path
         d="m 1770.2824,4872.2279 c -5.0584,-3.3502 -10.1714,-6.6116 -15.0291,-10.2807 4.8594,3.6695 9.9688,6.9304 15.0291,10.2807 z"
         id="path65"
         style="stroke-width:0.957648" />
      <path
         d="m 1920.7083,4918.5881 c -10.1941,0 -20.2693,-0.5903 -30.2041,-1.7216 9.935,1.1309 20.0102,1.7216 30.2041,1.7216 z"
         id="path64"
         style="stroke-width:0.957648" />
      <path
         d="m 2032.3468,4918.5881 v -4.9506 H 1916.235 c -78.0023,0 -149.0873,-34.0172 -201.9196,-89.1789 3.265,3.5573 6.6751,6.9435 10.0859,10.3317 2.7049,2.6865 5.2792,5.5285 8.0725,8.105 4.5151,4.1655 9.305,7.9582 14.0411,11.8254 2.9278,2.3899 5.7299,4.9548 8.7384,7.2265 4.8577,3.6691 9.9707,6.9305 15.0291,10.2807 3.1438,2.0815 6.1687,4.3585 9.3862,6.3127 5.1962,3.1568 10.6278,5.8691 16.0064,8.6828 3.3071,1.7295 6.5034,3.6754 9.8757,5.271 5.5115,2.6087 11.2368,4.735 16.9125,6.975 3.4492,1.3607 6.7949,2.9636 10.3011,4.1842 5.8671,2.0433 11.9269,3.5612 17.9431,5.2003 3.4904,0.9505 6.8869,2.1666 10.424,2.9774 6.5105,1.4928 13.1931,2.4125 19.8495,3.4177 3.1915,0.4819 6.301,1.2507 9.5233,1.6175 9.9348,1.1313 20.01,1.7216 30.2041,1.7216 z"
         style="fill:#9c9c9b;stroke-width:0.957648"
         id="path63" />
      <path
         d="m 2059.0816,4918.5881 v -4.9506 h -26.7348 v 4.9506 z"
         style="fill:#ececec;stroke-width:0.957648"
         id="path62" />
      <path
         d="m 3145.011,4918.5881 v -4.9506 H 2059.0816 v 4.9506 z"
         style="fill:#9c9c9b;stroke-width:0.957648"
         id="path61" />
      <path
         d="m 3171.7458,4918.5881 v -4.9506 h -26.7348 v 4.9506 z"
         style="fill:#ececec;stroke-width:0.957648"
         id="path60" />
      <path
         d="m 3577.8369,4483.4852 h -4.4715 v 105.0391 c 0,178.8174 -132.5168,325.1132 -294.4652,325.1132 h -107.1544 v 4.9506 h 111.6277 c 161.9605,0 294.4634,-146.2957 294.4634,-325.1131 z"
         style="fill:#9c9c9b;stroke-width:0.957648"
         id="path59" />
      <path
         d="m 3577.8369,4453.9699 h -4.4715 v 29.5153 h 4.4715 z"
         style="fill:#ececec;stroke-width:0.957648"
         id="path58" />
      <path
         d="m 3577.8369,2192.4701 h -4.4715 v 2261.4998 h 4.4715 z"
         style="fill:#9c9c9b;stroke-width:0.957648"
         id="path57" />
      <path
         d="m 3577.8369,2187.3308 h -4.4715 v 5.1393 h 4.4715 z"
         style="fill:#9c9c9b;stroke-width:0.957648"
         id="path56" />
      <path
         d="m 3577.8369,2187.3308 v 5.1393 h 5.2743 c 8.0203,0 14.5823,-7.245 14.5823,-16.1 v -473.4072 c 0,-0.6539 -0.046,-1.2964 -0.1157,-1.9299 -0.02,-0.1853 -0.05,-0.367 -0.077,-0.5503 -0.065,-0.4527 -0.144,-0.899 -0.2421,-1.3384 -0.044,-0.1951 -0.088,-0.3896 -0.1371,-0.5818 -0.1291,-0.4968 -0.278,-0.9842 -0.4485,-1.4602 -0.033,-0.092 -0.058,-0.1865 -0.093,-0.2772 -0.2217,-0.5867 -0.4739,-1.1563 -0.7548,-1.7058 -0.038,-0.076 -0.083,-0.1471 -0.1228,-0.2221 -0.2476,-0.4666 -0.5151,-0.9187 -0.8028,-1.3541 -0.071,-0.1075 -0.1441,-0.2129 -0.2172,-0.3184 -0.3204,-0.4608 -0.659,-0.9068 -1.0217,-1.3266 -0.016,-0.019 -0.032,-0.04 -0.048,-0.059 -0.8347,-0.9565 -1.7739,-1.8005 -2.7983,-2.5078 1.3975,2.4686 2.2251,5.3661 2.2251,8.4921 v 473.4077 c 0,8.855 -6.562,16.1 -14.5823,16.1 z"
         style="fill:#9c9c9b;stroke-width:0.957648"
         id="path55" />
      <path
         d="m 3577.8369,1686.8629 h -4.4715 v 500.4679 h 4.4715 z"
         style="fill:#c1bfbd;stroke-width:0.957648"
         id="path54" />
      <path
         d="m 3577.8369,1686.8629 v 500.4679 h 0.6213 c 8.0202,0 14.5823,-7.245 14.5823,-16.1 v -473.4073 c 0,-3.126 -0.8277,-6.0235 -2.2251,-8.4921 1.0244,0.7073 1.9636,1.5513 2.7982,2.5078 -2.6583,-3.0577 -6.3841,-4.9763 -10.5024,-4.9763 z"
         style="fill:#c1bfbd;stroke-width:0.957648"
         id="path53" />
      <path
         d="m 3577.8369,973.09558 h -4.4715 v 713.76732 h 4.4715 z"
         style="fill:#9c9c9b;stroke-width:0.957648"
         id="path52" />
      <path
         d="m 3577.8369,943.57826 h -4.4715 v 29.51732 h 4.4715 z"
         style="fill:#ececec;stroke-width:0.957648"
         id="path51" />
      <path
         d="m 3576.2776,783.63954 c 1.0248,10.96836 1.5591,22.09103 1.5593,33.34579 -2e-4,-11.25487 -0.5348,-22.37682 -1.5593,-33.34579 z"
         id="path50"
         style="stroke-width:0.957648" />
      <path
         d="m 3541.5717,661.28583 c 2.8138,5.64708 5.2285,11.55287 7.7415,17.39515 -2.513,-5.8442 -4.9273,-11.74624 -7.7415,-17.39515 z"
         id="path49"
         style="stroke-width:0.957648" />
      <path
         d="m 3526.5551,634.34506 c 3.2681,5.27631 6.1696,10.83127 9.1584,16.32208 -2.9891,-5.49239 -5.8898,-11.04432 -9.1584,-16.32208 z"
         id="path48"
         style="stroke-width:0.957648" />
      <path
         d="m 3509.3276,609.22418 c 3.6558,4.83353 6.9792,9.96582 10.3813,15.02889 -3.4027,-5.06463 -6.7246,-10.19399 -10.3813,-15.02889 z"
         id="path47"
         style="stroke-width:0.957648" />
      <path
         d="m 3501.4669,599.68249 c -2.9204,-3.56726 -5.8243,-7.14939 -8.8826,-10.57152 49.9553,58.33193 80.7811,136.8203 80.7811,222.94531 v 131.52198 h 4.4715 V 816.99319 c 0,-11.25712 -0.5344,-22.38305 -1.5593,-33.35365 -0.331,-3.5437 -1.0235,-6.96333 -1.4579,-10.47326 -0.9116,-7.36426 -1.7477,-14.75623 -3.1026,-21.95865 -0.7383,-3.92598 -1.8465,-7.69602 -2.7129,-11.56991 -1.48,-6.61594 -2.849,-13.28131 -4.6922,-19.7339 -1.1357,-3.97687 -2.6234,-7.77341 -3.893,-11.6839 -1.9995,-6.15672 -3.8852,-12.37279 -6.207,-18.35423 -1.4824,-3.8197 -3.2889,-7.44082 -4.8988,-11.18471 -2.513,-5.84228 -4.9277,-11.74807 -7.7415,-17.39515 -1.8134,-3.64013 -3.9237,-7.06406 -5.8582,-10.61869 -2.9888,-5.49081 -5.8903,-11.04577 -9.1584,-16.32208 -2.1519,-3.47449 -4.5774,-6.71509 -6.8462,-10.09199 -3.4021,-5.06307 -6.7255,-10.19536 -10.3813,-15.02889 -2.498,-3.30287 -5.2486,-6.35085 -7.8607,-9.54169 z"
         style="fill:#9c9c9b;stroke-width:0.957648"
         id="path46" />
      <path
         d="m 3492.1286,588.34253 c -0.3345,-0.35819 -0.6678,-0.71859 -1.0039,-1.07504 0.5119,0.58888 0.9517,1.25042 1.4596,1.84348 3.0583,3.42213 5.9622,7.00426 8.8826,10.57152 -3.1039,-3.79146 -6.0788,-7.71271 -9.3383,-11.33996 z"
         style="fill:#9c9c9b;stroke-width:0.957648"
         id="path45" />
      <path
         d="m 3491.7798,587.91998 c 0.1218,0.13509 0.2273,0.28723 0.3488,0.42255 0.406,0.43459 0.814,0.86786 1.2177,1.30498 -0.5168,-0.58155 -1.0459,-1.15023 -1.5665,-1.72753 z"
         style="fill:#ececec;stroke-width:0.957648"
         id="path44" />
      <path
         d="m 3490.8435,586.88622 c -0.1426,-0.15675 -0.304,-0.29167 -0.4469,-0.4481 0.2424,0.27685 0.4866,0.55158 0.7281,0.82937 0.3361,0.35645 0.6694,0.71685 1.0039,1.07504 -0.1215,-0.13532 -0.227,-0.28746 -0.3488,-0.42255 -0.3114,-0.34526 -0.6236,-0.69002 -0.9363,-1.03376 z"
         style="fill:#ececec;stroke-width:0.957648"
         id="path43" />
      <path
         d="m 3489.1862,585.05846 c 0.4054,0.4578 0.8074,0.91925 1.2104,1.37966 0.1429,0.15643 0.3043,0.29135 0.4469,0.4481 -0.5533,-0.60808 -1.0997,-1.22449 -1.6573,-1.82776 z"
         style="fill:#ececec;stroke-width:0.957648"
         id="path42" />
      <path
         d="m 3489.1506,585.02308 c 0.3078,0.33292 0.573,0.71118 0.8794,1.04556 0.1176,0.12844 0.2492,0.24083 0.3666,0.36948 -0.403,-0.46041 -0.805,-0.92186 -1.2104,-1.37966 -0.011,-0.0124 -0.024,-0.023 -0.035,-0.0354 z"
         style="fill:#ececec;stroke-width:0.957648"
         id="path41" />
      <path
         d="m 3480.5369,576.53678 c 3.1698,3.17295 6.4503,6.21202 9.4931,9.53186 -0.3064,-0.33438 -0.5716,-0.71264 -0.8794,-1.04556 -2.7491,-2.97342 -5.762,-5.63187 -8.6137,-8.4863 z"
         style="fill:#ececec;stroke-width:0.957648"
         id="path40" />
      <path
         d="m 3469.1872,565.356 c 3.9285,3.54675 7.5924,7.41985 11.3497,11.18078 -3.7585,-3.7622 -7.4198,-7.63304 -11.3497,-11.18078 z"
         id="path39"
         style="stroke-width:0.957648" />
      <path
         d="m 3446.5999,546.85044 c 4.232,3.13428 8.2169,6.62647 12.2914,9.99174 -4.0759,-3.36608 -8.0578,-6.85691 -12.2914,-9.99174 z"
         id="path38"
         style="stroke-width:0.957648" />
      <path
         d="m 3323.9287,495.35874 c 6.0854,0.93842 12.2111,1.73914 18.1745,3.08557 -5.9636,-1.34716 -12.0888,-2.14663 -18.1745,-3.08557 z"
         id="path37"
         style="stroke-width:0.957648" />
      <path
         d="m 3283.3735,491.8801 c 10.0527,0 19.9883,0.57436 29.7894,1.67446 -9.801,-1.10069 -19.7366,-1.67446 -29.7894,-1.67446 z"
         id="path36"
         style="stroke-width:0.957648" />
      <path
         d="m 3171.7458,491.8801 v 4.48095 h 115.6863 c 78.6171,0 150.27,34.51951 203.2226,90.45049 -0.217,-0.23832 -0.407,-0.50532 -0.6247,-0.7429 -3.0428,-3.31984 -6.3233,-6.35891 -9.4931,-9.53186 -3.7573,-3.76093 -7.4212,-7.63403 -11.3497,-11.18078 -3.3177,-2.99506 -6.8612,-5.67728 -10.2959,-8.51382 -4.0745,-3.36527 -8.0594,-6.85746 -12.2914,-9.99174 -3.617,-2.67836 -7.4466,-5.01175 -11.1734,-7.51543 -4.3072,-2.89426 -8.5264,-5.93533 -12.9731,-8.5885 -3.9538,-2.35842 -8.1064,-4.33387 -12.165,-6.49543 -4.4545,-2.37325 -8.8211,-4.92101 -13.3949,-7.04964 -4.4047,-2.0491 -8.9964,-3.66809 -13.5054,-5.48328 -4.4363,-1.78667 -8.7837,-3.78039 -13.3149,-5.33391 -4.9865,-1.70888 -10.1488,-2.93504 -15.2426,-4.35321 -4.248,-1.18321 -8.4099,-2.61139 -12.7274,-3.58673 -5.9634,-1.34643 -12.0891,-2.14715 -18.1745,-3.08557 -3.6025,-0.55583 -7.1239,-1.39517 -10.7658,-1.80418 -9.8011,-1.1001 -19.7367,-1.67446 -29.7894,-1.67446 z"
         style="fill:#ececec;stroke-width:0.957648"
         id="path35" />
      <path
         d="m 3145.011,491.8801 v 4.48095 h 26.7348 v -4.48095 z"
         style="fill:#ececec;stroke-width:0.957648"
         id="path34" />
      <path
         d="m 2059.0816,491.8801 v 4.48095 H 3145.011 v -4.48095 z"
         style="fill:#ececec;stroke-width:0.957648"
         id="path33" />
      <path
         d="m 2032.3468,491.8801 v 4.48095 h 26.7348 v -4.48095 z"
         style="fill:#ececec;stroke-width:0.957648"
         id="path32" />
      <path
         d="m 1920.7083,491.8801 c -161.9483,0 -294.4651,146.30917 -294.4651,325.11309 v 126.58507 h 4.0585 V 821.47414 c 0,-178.81733 132.5047,-325.11309 294.4653,-325.11309 h 107.5798 v -4.48095 z"
         style="fill:#ececec;stroke-width:0.957648"
         id="path2" />
    </g>
  </g>
</svg>
