<?xml version="1.0" encoding="UTF-8" standalone="no"?>
<!-- Created with Inkscape (http://www.inkscape.org/) -->

<svg
   version="1.1"
   id="svg1"
   width="2184.9067"
   height="4399.2134"
   viewBox="0 0 2184.9068 4399.2134"
   sodipodi:docname="vecteezy_phone-device-smart-vector-app-business-watch-brand-cellphone_7081049.eps"
   xmlns:inkscape="http://www.inkscape.org/namespaces/inkscape"
   xmlns:sodipodi="http://sodipodi.sourceforge.net/DTD/sodipodi-0.dtd"
   xmlns="http://www.w3.org/2000/svg"
   xmlns:svg="http://www.w3.org/2000/svg">
  <defs
     id="defs1" />
  <sodipodi:namedview
     id="namedview1"
     pagecolor="#ffffff"
     bordercolor="#666666"
     borderopacity="1.0"
     inkscape:showpageshadow="2"
     inkscape:pageopacity="0.0"
     inkscape:pagecheckerboard="0"
     inkscape:deskcolor="#d1d1d1">
    <inkscape:page
       x="0"
       y="0"
       width="2184.9067"
       height="4399.2134"
       id="page2"
       margin="0"
       bleed="0" />
  </sodipodi:namedview>
  <g
     id="g1"
     inkscape:groupmode="layer"
     inkscape:label="1"
     transform="translate(-1845.8526,-368.91107)">
    <g
       id="group-R5"
       transform="translate(239.46601,-122.96903)">
      <path
         id="path3"
         d="M 25848.1,3799.5 H 14634.5 c -1332.7,0 -2423.2,1090.4 -2423.2,2423.2 v 28147.7 c 0,1332.7 1090.5,2423.2 2423.2,2423.2 h 11213.6 c 1332.8,0 2423.2,-1090.5 2423.2,-2423.2 V 6222.7 c 0,-1332.8 -1090.4,-2423.2 -2423.2,-2423.2"
         style="fill:#c1bfbd;fill-opacity:1;fill-rule:nonzero;stroke:none"
         transform="matrix(0.13333333,0,0,-0.13333333,0,5397.6933)" />
      <path
         id="path4"
         d="m 27540.9,36100 c 428.4,-437.7 693.6,-1035.7 693.6,-1692.8 V 6259.6 c 0,-1332.8 -1090.5,-2423.2 -2423.2,-2423.2 H 14597.7 c -657.1,0 -1255.1,265.1 -1692.8,693.6 440.6,-450.1 1053.9,-730.5 1729.6,-730.5 h 11213.6 c 1332.8,0 2423.2,1090.4 2423.2,2423.2 v 28147.7 c 0,675.7 -280.4,1289 -730.4,1729.6"
         style="fill:#9c9c9b;fill-opacity:1;fill-rule:nonzero;stroke:none"
         transform="matrix(0.13333333,0,0,-0.13333333,0,5397.6933)" />
      <path
         id="path5"
         d="M 12244.7,6189.4 V 34337 c 0,1332.8 1090.4,2423.2 2423.2,2423.2 h 11213.6 c 657.9,0 1256.7,-265.9 1694.5,-695.3 -440.5,449 -1053.1,728.7 -1727.9,728.7 H 14634.5 c -1332.7,0 -2423.2,-1090.5 -2423.2,-2423.2 V 6222.7 c 0,-674.8 279.7,-1287.4 728.7,-1727.8 -429.5,437.7 -695.3,1036.5 -695.3,1694.5"
         style="fill:#ececec;fill-opacity:1;fill-rule:nonzero;stroke:none"
         transform="matrix(0.13333333,0,0,-0.13333333,0,5397.6933)" />
      <path
         id="path6"
         d="m 12211.3,7042.5 h 16060 v 220 h -16060 v -220"
         style="fill:#ececec;fill-opacity:1;fill-rule:nonzero;stroke:none"
         transform="matrix(0.13333333,0,0,-0.13333333,0,5397.6933)" />
      <path
         id="path7"
         d="m 28271.3,33426.9 h -16060 v -220 h 16060 v 220"
         style="fill:#ececec;fill-opacity:1;fill-rule:nonzero;stroke:none"
         transform="matrix(0.13333333,0,0,-0.13333333,0,5397.6933)" />
      <path
         id="path8"
         d="m 15553.2,3799.5 h 220 v 32994.1 h -220 V 3799.5"
         style="fill:#ececec;fill-opacity:1;fill-rule:nonzero;stroke:none"
         transform="matrix(0.13333333,0,0,-0.13333333,0,5397.6933)" />
      <path
         id="path9"
         d="m 24709.5,3799.5 h 220 v 32994.1 h -220 V 3799.5"
         style="fill:#ececec;fill-opacity:1;fill-rule:nonzero;stroke:none"
         transform="matrix(0.13333333,0,0,-0.13333333,0,5397.6933)" />
      <path
         id="path10"
         d="M 25588.1,4004.4 H 14894.5 c -1332.7,0 -2423.2,1090.4 -2423.2,2423.2 v 27737.9 c 0,1332.8 1090.5,2423.2 2423.2,2423.2 h 10693.6 c 1332.8,0 2423.2,-1090.4 2423.2,-2423.2 V 6427.6 c 0,-1332.8 -1090.4,-2423.2 -2423.2,-2423.2"
         style="fill:#1c1c1f;fill-opacity:1;fill-rule:nonzero;stroke:none"
         transform="matrix(0.13333333,0,0,-0.13333333,0,5397.6933)" />
      <path
         id="path11"
         d="m 25653.1,36063.7 h -2637.6 v -418.3 c 0,-384.2 -314.3,-698.5 -698.5,-698.5 h -4103 c -384.1,0 -698.5,314.3 -698.5,698.5 v 418.3 h -2685.9 c -1040.7,0 -1892.2,-851.5 -1892.2,-1892.2 v -27750 c 0,-1040.7 851.5,-1892.2 1892.2,-1892.2 h 10823.5 c 1040.7,0 1892.2,851.5 1892.2,1892.2 v 27750 c 0,1040.7 -851.5,1892.2 -1892.2,1892.2"
         style="fill:#ffffff;fill-opacity:1;fill-rule:nonzero;stroke:none"
         transform="matrix(0.13333333,0,0,-0.13333333,0,5397.6933)" />
      <path
         id="path12"
         d="m 18587.1,35595.8 c 0,-157.4 -127.6,-285 -285,-285 -157.4,0 -285,127.6 -285,285 0,157.4 127.6,285 285,285 157.4,0 285,-127.6 285,-285"
         style="fill:#100f0d;fill-opacity:1;fill-rule:nonzero;stroke:none"
         transform="matrix(0.13333333,0,0,-0.13333333,0,5397.6933)" />
      <path
         id="path13"
         d="m 18574.2,35595.8 c 0,-150.2 -121.9,-272.1 -272.1,-272.1 -150.3,0 -272.2,121.9 -272.2,272.1 0,150.3 121.9,272.1 272.2,272.1 150.2,0 272.1,-121.8 272.1,-272.1"
         style="fill:#191b1f;fill-opacity:1;fill-rule:nonzero;stroke:none"
         transform="matrix(0.13333333,0,0,-0.13333333,0,5397.6933)" />
      <path
         id="path14"
         d="m 18526.4,35595.8 c 0,-123.9 -100.5,-224.3 -224.3,-224.3 -123.9,0 -224.4,100.4 -224.4,224.3 0,123.9 100.5,224.3 224.4,224.3 123.8,0 224.3,-100.4 224.3,-224.3"
         style="fill:#c9c6c6;fill-opacity:1;fill-rule:nonzero;stroke:none"
         transform="matrix(0.13333333,0,0,-0.13333333,0,5397.6933)" />
      <path
         id="path15"
         d="m 18509.9,35597.1 c 0.7,-114.8 -91.8,-208.4 -206.6,-209.1 -114.8,-0.7 -208.4,91.8 -209.1,206.6 -0.7,114.8 91.8,208.4 206.6,209.1 114.8,0.6 208.4,-91.8 209.1,-206.6"
         style="fill:#141414;fill-opacity:1;fill-rule:nonzero;stroke:none"
         transform="matrix(0.13333333,0,0,-0.13333333,0,5397.6933)" />
      <path
         id="path16"
         d="m 18490,35597 c 0.6,-103.8 -83,-188.4 -186.8,-189.1 -103.8,-0.6 -188.4,83 -189,186.8 -0.7,103.8 83,188.4 186.7,189 103.8,0.7 188.4,-83 189.1,-186.7"
         style="fill:#100f0d;fill-opacity:1;fill-rule:nonzero;stroke:none"
         transform="matrix(0.13333333,0,0,-0.13333333,0,5397.6933)" />
      <path
         id="path17"
         d="m 18448.9,35596.7 c 0.5,-81.1 -64.9,-147.2 -146,-147.7 -81.1,-0.5 -147.2,64.8 -147.7,146 -0.5,81.1 64.9,147.2 146,147.7 81.1,0.5 147.2,-64.9 147.7,-146"
         style="fill:#18243a;fill-opacity:1;fill-rule:nonzero;stroke:none"
         transform="matrix(0.13333333,0,0,-0.13333333,0,5397.6933)" />
      <path
         id="path18"
         d="m 18418.2,35596.5 c 0.4,-64.1 -51.3,-116.5 -115.4,-116.8 -64.2,-0.4 -116.5,51.3 -116.9,115.4 -0.4,64.2 51.3,116.5 115.5,116.9 64.1,0.4 116.5,-51.3 116.8,-115.5"
         style="fill:#5e5f62;fill-opacity:1;fill-rule:nonzero;stroke:none"
         transform="matrix(0.13333333,0,0,-0.13333333,0,5397.6933)" />
      <path
         id="path19"
         d="m 18397.7,35596.4 c 0.3,-52.8 -42.2,-95.9 -95.1,-96.2 -52.8,-0.3 -95.9,42.2 -96.2,95.1 -0.3,52.8 42.3,95.9 95.1,96.2 52.8,0.3 95.9,-42.3 96.2,-95.1"
         style="fill:#1d2e54;fill-opacity:1;fill-rule:nonzero;stroke:none"
         transform="matrix(0.13333333,0,0,-0.13333333,0,5397.6933)" />
      <path
         id="path20"
         d="m 18346.2,35596.1 c 0.1,-24.3 -19.5,-44.2 -43.9,-44.4 -24.3,-0.1 -44.2,19.5 -44.3,43.9 -0.2,24.3 19.4,44.2 43.8,44.3 24.4,0.2 44.2,-19.4 44.4,-43.8"
         style="fill:#100f0d;fill-opacity:1;fill-rule:nonzero;stroke:none"
         transform="matrix(0.13333333,0,0,-0.13333333,0,5397.6933)" />
      <path
         id="path21"
         d="m 18389.8,35642.6 c 0,-25.5 -20.7,-46.3 -46.3,-46.3 -25.6,0 -46.3,20.8 -46.3,46.3 0,25.6 20.7,46.3 46.3,46.3 25.6,0 46.3,-20.7 46.3,-46.3"
         style="fill:#ffffff;fill-opacity:1;fill-rule:nonzero;stroke:none"
         transform="matrix(0.13333333,0,0,-0.13333333,0,5397.6933)" />
      <path
         id="path22"
         d="m 18288,35567.7 c 0,-12.5 -10.1,-22.7 -22.7,-22.7 -12.5,0 -22.6,10.2 -22.6,22.7 0,12.6 10.1,22.7 22.6,22.7 12.6,0 22.7,-10.1 22.7,-22.7"
         style="fill:#ffffff;fill-opacity:1;fill-rule:nonzero;stroke:none"
         transform="matrix(0.13333333,0,0,-0.13333333,0,5397.6933)" />
      <path
         id="path23"
         d="m 21382.6,36333.6 h -2246.7 c -36.7,0 -66.7,30 -66.7,66.6 v 0 c 0,36.7 30,66.7 66.7,66.7 h 2246.7 c 36.6,0 66.6,-30 66.6,-66.7 v 0 c 0,-36.6 -30,-66.6 -66.6,-66.6"
         style="fill:#2b2b2f;fill-opacity:1;fill-rule:nonzero;stroke:none"
         transform="matrix(0.13333333,0,0,-0.13333333,0,5397.6933)" />
      <path
         id="path24"
         d="m 12254.7,29533.1 h -86.8 c -66,0 -120,54 -120,120 v 1007.1 c 0,66 54,120 120,120 h 86.8 c 66,0 120,-54 120,-120 v -1007.1 c 0,-66 -54,-120 -120,-120"
         style="fill:#c1bfbd;fill-opacity:1;fill-rule:nonzero;stroke:none"
         transform="matrix(0.13333333,0,0,-0.13333333,0,5397.6933)" />
      <path
         id="path25"
         d="m 12065.4,29635.6 v 1007.1 c 0,66 54,120 120,120 h 86.8 c 28.6,0 54.9,-10.1 75.6,-26.9 -22.1,27 -55.6,44.4 -93.1,44.4 h -86.8 c -66,0 -120,-54 -120,-120 v -1007.1 c 0,-37.4 17.4,-71 44.5,-93 -16.8,20.6 -27,46.9 -27,75.5"
         style="fill:#ececec;fill-opacity:1;fill-rule:nonzero;stroke:none"
         transform="matrix(0.13333333,0,0,-0.13333333,0,5397.6933)" />
      <path
         id="path26"
         d="m 12254.7,26246.9 h -86.8 c -66,0 -120,54 -120,120 v 2131.2 c 0,66 54,120 120,120 h 86.8 c 66,0 120,-54 120,-120 v -2131.2 c 0,-66 -54,-120 -120,-120"
         style="fill:#c1bfbd;fill-opacity:1;fill-rule:nonzero;stroke:none"
         transform="matrix(0.13333333,0,0,-0.13333333,0,5397.6933)" />
      <path
         id="path27"
         d="M 12066,26348.8 V 28480 c 0,66 54,120 120,120 h 86.9 c 28.4,0 54.5,-10 75.1,-26.7 -22,27.3 -55.7,44.8 -93.3,44.8 h -86.8 c -66,0 -120,-54 -120,-120 v -2131.2 c 0,-37.6 17.6,-71.3 44.8,-93.3 -16.6,20.6 -26.7,46.8 -26.7,75.2"
         style="fill:#ececec;fill-opacity:1;fill-rule:nonzero;stroke:none"
         transform="matrix(0.13333333,0,0,-0.13333333,0,5397.6933)" />
      <path
         id="path28"
         d="m 12254.7,23286.9 h -86.8 c -66,0 -120,54 -120,120 v 2131.2 c 0,66 54,120 120,120 h 86.8 c 66,0 120,-54 120,-120 v -2131.2 c 0,-66 -54,-120 -120,-120"
         style="fill:#c1bfbd;fill-opacity:1;fill-rule:nonzero;stroke:none"
         transform="matrix(0.13333333,0,0,-0.13333333,0,5397.6933)" />
      <path
         id="path29"
         d="m 12064.8,23390 v 2131.3 c 0,66 54,120 120,120 h 86.8 c 28.7,0 55.2,-10.3 75.9,-27.3 -22.1,26.9 -55.5,44.1 -92.8,44.1 h -86.8 c -66,0 -120,-54 -120,-120 v -2131.2 c 0,-37.3 17.3,-70.7 44.1,-92.8 -17,20.8 -27.2,47.2 -27.2,75.9"
         style="fill:#ececec;fill-opacity:1;fill-rule:nonzero;stroke:none"
         transform="matrix(0.13333333,0,0,-0.13333333,0,5397.6933)" />
      <path
         id="path30"
         d="m 28314.7,24118.4 h -86.8 c -66,0 -120,54 -120,120 v 3528.5 c 0,66 54,120 120,120 h 86.8 c 66,0 120,-54 120,-120 v -3528.5 c 0,-66 -54,-120 -120,-120"
         style="fill:#c1bfbd;fill-opacity:1;fill-rule:nonzero;stroke:none"
         transform="matrix(0.13333333,0,0,-0.13333333,0,5397.6933)" />
      <path
         id="path31"
         d="m 28378.1,27868.5 c 11.5,-18.4 18.3,-40 18.3,-63.3 v -3528.5 c 0,-66 -54,-120 -120,-120 h -86.8 c -23.2,0 -44.9,6.8 -63.3,18.3 21.2,-33.9 58.8,-56.6 101.6,-56.6 h 86.8 c 66,0 120,54 120,120 v 3528.5 c 0,42.8 -22.7,80.4 -56.6,101.6"
         style="fill:#9c9c9b;fill-opacity:1;fill-rule:nonzero;stroke:none"
         transform="matrix(0.13333333,0,0,-0.13333333,0,5397.6933)" />
    </g>
  </g>
</svg>
